<svg width="12" height="13" viewBox="0 0 12 13" fill="none" xmlns="http://www.w3.org/2000/svg">
<circle cx="6" cy="6" r="6" fill="#CADAE7"/>
<path d="M5.69189 6.93195L5.53189 5.63595L5.57189 5.59595C6.55856 5.55862 7.05189 5.25462 7.05189 4.68395C7.05189 4.45462 6.96922 4.27062 6.80389 4.13195C6.63856 3.99328 6.41456 3.92395 6.13189 3.92395C5.65722 3.92395 5.22256 4.13462 4.82789 4.55595L4.22789 3.91595C4.75056 3.32395 5.39322 3.02795 6.15589 3.02795C6.72122 3.02795 7.17456 3.17728 7.51589 3.47595C7.85722 3.76928 8.02789 4.16662 8.02789 4.66795C8.02789 5.14262 7.88122 5.51062 7.58789 5.77195C7.29456 6.02795 6.90522 6.19862 6.41989 6.28395L6.33989 6.93195H5.69189ZM5.45989 8.69995V7.60395H6.53189V8.69995H5.45989Z" fill="white"/>
</svg>
